<svg id="svg2" xmlns:rdf="http://www.w3.org/1999/02/22-rdf-syntax-ns#" xmlns="http://www.w3.org/2000/svg" height="43.911" viewBox="0 0 244.51843 43.910618" width="244.52" version="1.1" xmlns:cc="http://creativecommons.org/ns#" xmlns:dc="http://purl.org/dc/elements/1.1/">
<path id="path4157" style="stroke:#eb1c2d;stroke-width:6.3;stroke-linecap:round;fill:none" d="m3.1503 3.2158v24.109c0 17.251 25.625 17.181 25.714-0.10674-0.33877-9.7248-6.6497-13.624-16.348-12.854"/>
<path id="path4194" style="stroke:#eb1c2d;stroke-width:6.3;stroke-linecap:round;fill:none" d="m40.612 3.2318 0.0312 37.453"/>
<path id="path4224" style="stroke:#eb1c2d;stroke-width:6.3;stroke-linecap:round;fill:none" d="m89.38 40.716v-15.478c-0.0884-14.496 26.075-14.496 26.163-0.08839l-0.0846 15.513"/>
<path id="path4157-4" style="stroke:#eb1c2d;stroke-width:6.3057;stroke-linecap:round;fill:none" d="m152.7 3.1978v24.105c0 17.248-25.676 17.178-25.765-0.10672 0.33944-9.7233 6.6628-13.622 16.38-12.852"/>
<path id="path4289" style="stroke:#eb1c2d;stroke-width:6.3;stroke-linecap:round;fill:none" d="m164.94 6.8608 0.11429 22.912c-0.0732 7.8962 5.829 10.115 8.7759 10.001"/>
<path id="path4325" style="stroke:#eb1c2d;stroke-width:6.3;stroke-linecap:round;fill:none" d="m173.19 14.487-7.2478-0.08839"/>
<path id="path4210-7" style="stroke-linejoin:round;stroke:#eb1c2d;stroke-linecap:round;stroke-width:6.3;fill:none" d="m191.92 26.731 16.25 0.0625c0-10.902-8.375-12.511-11.875-12.449-8.7044-0.0625-13 6.0188-13 12.449 0.43105 10.066 7.3792 12.615 13.704 12.536 7.6494-0.09499 11.296-4.0473 11.296-4.0473"/>
<path id="path4359" style="stroke:#eb1c2d;stroke-width:6.3;stroke-linecap:round;fill:none" d="m241.34 17.877c-7.5047-8.4204-21.812-1.7672-21.812 9.1875 0.0625 10.27 12.548 17.941 21.812 9.3125"/>
<path id="path4210-7-7" style="stroke-linejoin:round;stroke:#eb1c2d;stroke-linecap:round;stroke-width:6.3;fill:none" d="m60.933 27.86 16.25 0.0625c0-10.902-8.375-12.511-11.875-12.448-8.7044-0.0625-13 6.0188-13 12.448 0.43105 10.066 7.3792 12.615 13.704 12.536 7.6494-0.09499 11.296-4.0473 11.296-4.0473"/>
</svg>
